<svg width="64" height="64" viewBox="0 0 64 64" fill="none" xmlns="http://www.w3.org/2000/svg">
<rect width="64" height="64" rx="32" fill="#5096FF"/>
<path d="M49.1957 37.256C49.1957 37.864 49.2197 38.352 49.2677 38.72C49.3157 39.088 49.4117 39.376 49.5557 39.584C49.7157 39.792 49.9317 39.936 50.2037 40.016C50.4917 40.096 50.8677 40.144 51.3317 40.16V41H44.7077V40.16C45.1877 40.144 45.5717 40.096 45.8597 40.016C46.1477 39.92 46.3717 39.776 46.5317 39.584C46.7077 39.392 46.8197 39.128 46.8677 38.792C46.9317 38.44 46.9637 37.984 46.9637 37.424V27.08C46.9637 26.216 46.9477 25.496 46.9157 24.92C46.8997 24.328 46.8677 23.928 46.8197 23.72C46.7397 23.352 46.5477 23.104 46.2437 22.976C45.9557 22.848 45.4277 22.784 44.6597 22.784V21.968L49.1957 21.08V37.256Z" fill="black"/>
<path d="M39.6004 38.984H39.5044C38.9284 39.8 38.3124 40.384 37.6564 40.736C37.0164 41.072 36.2564 41.24 35.3764 41.24C34.4644 41.24 33.6244 41.08 32.8564 40.76C32.1044 40.424 31.4484 39.968 30.8884 39.392C30.3444 38.8 29.9124 38.096 29.5924 37.28C29.2884 36.464 29.1364 35.576 29.1364 34.616C29.1364 33.672 29.2884 32.8 29.5924 32C29.9124 31.184 30.3444 30.488 30.8884 29.912C31.4484 29.32 32.1124 28.864 32.8804 28.544C33.6484 28.208 34.4804 28.04 35.3764 28.04C36.1444 28.04 36.8244 28.168 37.4164 28.424C38.0244 28.68 38.6084 29.088 39.1684 29.648V27.2C39.1684 26.288 39.1524 25.528 39.1204 24.92C39.1044 24.312 39.0724 23.896 39.0244 23.672C38.9444 23.32 38.7204 23.072 38.3524 22.928C37.9844 22.784 37.3844 22.712 36.5524 22.712V21.992L41.4724 21.08V34.928C41.4724 36.032 41.4804 36.944 41.4964 37.664C41.5124 38.368 41.5604 38.872 41.6404 39.176C41.6884 39.368 41.7444 39.528 41.8084 39.656C41.8884 39.784 41.9924 39.888 42.1204 39.968C42.2644 40.032 42.4484 40.08 42.6724 40.112C42.9124 40.144 43.2164 40.16 43.5844 40.16V40.976L39.6004 41.24V38.984ZM39.1204 33.68C39.1204 32.848 39.0724 32.216 38.9764 31.784C38.8964 31.352 38.7284 30.976 38.4724 30.656C38.1044 30.176 37.6324 29.816 37.0564 29.576C36.4964 29.32 35.9364 29.192 35.3764 29.192C34.2244 29.192 33.3444 29.672 32.7364 30.632C32.1444 31.576 31.8484 32.864 31.8484 34.496C31.8484 35.344 31.9204 36.112 32.0644 36.8C32.2244 37.488 32.4484 38.08 32.7364 38.576C33.0404 39.056 33.4084 39.432 33.8404 39.704C34.2884 39.96 34.8004 40.088 35.3764 40.088C35.6644 40.088 35.9524 40.056 36.2404 39.992C36.5444 39.928 36.8324 39.832 37.1044 39.704C37.3924 39.56 37.6564 39.4 37.8964 39.224C38.1364 39.032 38.3364 38.816 38.4964 38.576C38.7204 38.224 38.8804 37.8 38.9764 37.304C39.0724 36.808 39.1204 36.128 39.1204 35.264V33.68Z" fill="black"/>
<path d="M25.2767 37.184C25.2767 37.808 25.3007 38.312 25.3487 38.696C25.4127 39.064 25.5247 39.36 25.6847 39.584C25.8447 39.792 26.0687 39.936 26.3567 40.016C26.6447 40.096 27.0287 40.144 27.5087 40.16V41H20.6207V40.16C21.1007 40.144 21.4927 40.096 21.7967 40.016C22.1007 39.92 22.3327 39.776 22.4927 39.584C22.6687 39.376 22.7807 39.096 22.8287 38.744C22.8927 38.376 22.9247 37.912 22.9247 37.352V34.28C22.9247 33.352 22.9087 32.592 22.8767 32C22.8607 31.392 22.8207 30.976 22.7567 30.752C22.6767 30.384 22.4927 30.136 22.2047 30.008C21.9167 29.864 21.3727 29.792 20.5727 29.792V28.952L25.2767 28.04V37.184ZM22.5167 23.168C22.5167 22.752 22.6607 22.4 22.9487 22.112C23.2367 21.824 23.5887 21.68 24.0047 21.68C24.4207 21.68 24.7727 21.824 25.0607 22.112C25.3487 22.4 25.4927 22.752 25.4927 23.168C25.4927 23.584 25.3487 23.936 25.0607 24.224C24.7727 24.512 24.4207 24.656 24.0047 24.656C23.5887 24.656 23.2367 24.512 22.9487 24.224C22.6607 23.936 22.5167 23.584 22.5167 23.168Z" fill="black"/>
<path d="M17.016 37.256C17.016 37.864 17.04 38.352 17.088 38.72C17.136 39.088 17.232 39.376 17.376 39.584C17.536 39.792 17.752 39.936 18.024 40.016C18.312 40.096 18.688 40.144 19.152 40.16V41H12.528V40.16C13.008 40.144 13.392 40.096 13.68 40.016C13.968 39.92 14.192 39.776 14.352 39.584C14.528 39.392 14.64 39.128 14.688 38.792C14.752 38.44 14.784 37.984 14.784 37.424V27.08C14.784 26.216 14.768 25.496 14.736 24.92C14.72 24.328 14.688 23.928 14.64 23.72C14.56 23.352 14.368 23.104 14.064 22.976C13.776 22.848 13.248 22.784 12.48 22.784V21.968L17.016 21.08V37.256Z" fill="black"/>
</svg>
